<svg width="60" height="60" viewBox="0 0 60 60" fill="none" xmlns="http://www.w3.org/2000/svg">
<circle cx="17.5" cy="23.5" r="13.5" fill="url(#paint0_linear_4262_22094)"/>
<path d="M15.8802 21.3159V25.658H11.5381V30.0001H15.8802V34.3422H20.2223V30.0001H24.5644V25.658H20.2223V21.3159H15.8802Z" fill="#1D8878"/>
<path d="M40.5384 24.2535C40.5384 25.8759 39.2232 27.1911 37.6007 27.1911C35.9783 27.1911 34.6631 25.8759 34.6631 24.2535C34.6631 22.631 35.9783 21.3158 37.6007 21.3158C39.2232 21.3158 40.5384 22.631 40.5384 24.2535Z" fill="black"/>
<path d="M43.4748 34.342C45.0972 34.342 46.4124 33.0268 46.4124 31.4043C46.4124 29.7819 45.0972 28.4667 43.4748 28.4667C41.8523 28.4667 40.5371 29.7819 40.5371 31.4043C40.5371 33.0268 41.8523 34.342 43.4748 34.342Z" fill="black"/>
<path fill-rule="evenodd" clip-rule="evenodd" d="M32.002 13.1005H46.21C51.5947 13.1005 55.96 17.4657 55.96 22.8505V47.2165C55.96 49.8399 53.8333 51.9665 51.21 51.9665H41.9957C39.3724 51.9665 37.2458 49.8399 37.2458 47.2165V45.5411H22.7617V47.2165C22.7617 49.8399 20.6351 51.9665 18.0117 51.9665H8.79785C6.1745 51.9665 4.04785 49.8399 4.04785 47.2165V22.8505C4.04785 17.4657 8.41308 13.1005 13.7979 13.1005H27.502V8.07422H32.002V13.1005ZM8.54785 22.8505C8.54785 19.951 10.8984 17.6005 13.7979 17.6005H46.21C49.1095 17.6005 51.46 19.951 51.46 22.8505V47.2165C51.46 47.3546 51.348 47.4665 51.21 47.4665H41.9957C41.8577 47.4665 41.7457 47.3546 41.7457 47.2165V41.0411H18.2617V47.2165C18.2617 47.3546 18.1498 47.4665 18.0117 47.4665H8.79785C8.65978 47.4665 8.54785 47.3546 8.54785 47.2165V22.8505Z" fill="black"/>
<defs>
<linearGradient id="paint0_linear_4262_22094" x1="25.6346" y1="10" x2="17.5" y2="37" gradientUnits="userSpaceOnUse">
<stop stop-color="#DFF9EC"/>
<stop offset="1" stop-color="#E2FCDA"/>
</linearGradient>
</defs>
</svg>
