<svg width="48" height="50" viewBox="0 0 48 50" fill="none" xmlns="http://www.w3.org/2000/svg">
<path fill-rule="evenodd" clip-rule="evenodd" d="M24 50C37.2548 50 48 39.2548 48 26C48 12.7452 37.2548 2 24 2C10.7452 2 0 12.7452 0 26C0 39.2548 10.7452 50 24 50ZM29.131 35C28.2263 38.4404 26.74 42.0047 24.5 45.6124C22.26 42.0047 20.7737 38.4404 19.869 35H29.131ZM33.2642 35C32.4789 38.3413 31.2052 41.7905 29.3141 45.2863C34.8032 43.7773 39.3479 39.9876 41.8654 35H33.2642ZM43.3699 31H33.9864C34.432 27.4847 34.3654 24.1254 33.9511 21H43.3699C43.7812 22.5981 44 24.2735 44 26C44 27.7265 43.7812 29.4019 43.3699 31ZM29.9395 31H19.0605C18.557 27.4583 18.6346 24.0926 19.0865 21H29.9135C30.3654 24.0926 30.443 27.4583 29.9395 31ZM15.0136 31C14.568 27.4847 14.6346 24.1254 15.0489 21H4.63009C4.21876 22.5981 4 24.2735 4 26C4 27.7265 4.21877 29.4019 4.63009 31H15.0136ZM6.13458 35C8.82634 40.3328 13.8356 44.2961 19.8388 45.5665C17.8632 41.9748 16.5421 38.4305 15.7358 35H6.13458ZM41.8654 17H33.2122C32.2561 12.9751 30.7711 9.46621 29.1949 6.6813C34.7374 8.16799 39.3297 11.9764 41.8654 17ZM24.5 6.68638C22.8028 9.17835 21.0329 12.7277 19.9048 17H29.0952C27.967 12.7277 26.1972 9.17835 24.5 6.68638ZM19.9615 6.40794C18.3275 9.23515 16.7755 12.8423 15.7878 17H6.13458C8.84466 11.631 13.9038 7.65005 19.9615 6.40794Z" fill="black"/>
<circle cx="43.5" cy="4.5" r="4.5" fill="#F2A33A"/>
</svg>
