<svg width="53" height="52" viewBox="0 0 53 52" fill="none" xmlns="http://www.w3.org/2000/svg">
<path fill-rule="evenodd" clip-rule="evenodd" d="M39.8384 4H13.8384C8.86782 4 4.83838 8.02944 4.83838 13V39C4.83838 43.9706 8.86782 48 13.8384 48H39.8384C44.8089 48 48.8384 43.9706 48.8384 39V13C48.8384 8.02944 44.8089 4 39.8384 4ZM13.8384 0C6.65868 0 0.838379 5.8203 0.838379 13V39C0.838379 46.1797 6.65868 52 13.8384 52H39.8384C47.0181 52 52.8384 46.1797 52.8384 39V13C52.8384 5.8203 47.0181 0 39.8384 0H13.8384Z" fill="black"/>
<path d="M36 26C36 30.9706 31.9706 35 27 35C22.0294 35 18 30.9706 18 26C18 21.0294 22.0294 17 27 17C31.9706 17 36 21.0294 36 26Z" fill="url(#paint0_linear_4262_22115)"/>
<path fill-rule="evenodd" clip-rule="evenodd" d="M26.8384 35C31.8089 35 35.8384 30.9706 35.8384 26C35.8384 21.0294 31.8089 17 26.8384 17C21.8678 17 17.8384 21.0294 17.8384 26C17.8384 30.9706 21.8678 35 26.8384 35ZM26.8384 39C34.0181 39 39.8384 33.1797 39.8384 26C39.8384 18.8203 34.0181 13 26.8384 13C19.6587 13 13.8384 18.8203 13.8384 26C13.8384 33.1797 19.6587 39 26.8384 39Z" fill="black"/>
<path fill-rule="evenodd" clip-rule="evenodd" d="M41.8384 13C43.4952 13 44.8384 11.6569 44.8384 10C44.8384 8.34315 43.4952 7 41.8384 7C40.1815 7 38.8384 8.34315 38.8384 10C38.8384 11.6569 40.1815 13 41.8384 13Z" fill="black"/>
<defs>
<linearGradient id="paint0_linear_4262_22115" x1="27" y1="17" x2="27" y2="35" gradientUnits="userSpaceOnUse">
<stop stop-color="#B387E2"/>
<stop offset="1" stop-color="#927DF1"/>
</linearGradient>
</defs>
</svg>
