<svg width="106" height="18" viewBox="0 0 106 18" fill="none" xmlns="http://www.w3.org/2000/svg">
  <path d="M9 0L11.4705 5.5997L17.5595 6.21885L12.9973 10.2988L14.2901 16.2812L9 13.203L3.70993 16.2812L5.00271 10.2988L0.440492 6.21885L6.52954 5.5997L9 0Z" fill="#FF492D" />
  <path d="M31 0L33.4705 5.5997L39.5595 6.21885L34.9973 10.2988L36.2901 16.2812L31 13.203L25.7099 16.2812L27.0027 10.2988L22.4405 6.21885L28.5295 5.5997L31 0Z" fill="#FF492D" />
  <path d="M53 0L55.4705 5.5997L61.5595 6.21885L56.9973 10.2988L58.2901 16.2812L53 13.203L47.7099 16.2812L49.0027 10.2988L44.4405 6.21885L50.5295 5.5997L53 0Z" fill="#FF492D" />
  <path d="M75 0L77.4705 5.5997L83.5595 6.21885L78.9973 10.2988L80.2901 16.2812L75 13.203L69.7099 16.2812L71.0027 10.2988L66.4405 6.21885L72.5295 5.5997L75 0Z" fill="#FF492D" />
  <path d="M97 0L99.4705 5.5997L105.56 6.21885L100.997 10.2988L102.29 16.2812L97 13.203L91.7099 16.2812L93.0027 10.2988L88.4405 6.21885L94.5295 5.5997L97 0Z" fill="#FF492D" />
</svg>
