<svg width="50" height="50" viewBox="0 0 50 50" fill="none" xmlns="http://www.w3.org/2000/svg">
<g clip-path="url(#clip0_4262_22139)">
<path fill-rule="evenodd" clip-rule="evenodd" d="M46.8864 45.2861H3.12576V20.3112H46.8864V45.2861ZM46.8864 17.1855H3.12576V7.80817C3.12576 6.97916 3.45508 6.18411 4.04128 5.59792C4.62747 5.01172 5.42252 4.6824 6.25153 4.6824H43.7607C44.5897 4.6824 45.3847 5.01172 45.9709 5.59792C46.5571 6.18411 46.8864 6.97916 46.8864 7.80817V17.1855ZM43.7607 1.55664H6.25153C4.59352 1.55664 3.00342 2.21528 1.83103 3.38767C0.658641 4.56006 0 6.15016 0 7.80817V48.4118H50.0122V7.80817C50.0122 6.98721 49.8505 6.17428 49.5363 5.41581C49.2222 4.65734 48.7617 3.96818 48.1812 3.38767C47.6007 2.80716 46.9115 2.34668 46.153 2.03251C45.3946 1.71834 44.5816 1.55664 43.7607 1.55664ZM14.8506 40.4224L17.0762 38.2281L11.8655 32.9393L17.0762 27.6599L14.8506 25.4656L7.47383 32.9362L14.8506 40.4224ZM34.4148 40.4224L32.1892 38.2281L37.3999 32.9393L32.1892 27.6599L34.4148 25.4656L41.7916 32.9362L34.4148 40.4224ZM31.2203 26.1033L28.5415 24.4935L19.2423 39.9629L21.9211 41.5727L31.2203 26.1033Z" fill="#1C1B1F"/>
<path d="M6 11.1258C6 11.9548 6.32932 12.7498 6.91551 13.336C7.50171 13.9222 8.29676 14.2515 9.12576 14.2515C9.95477 14.2515 10.7498 13.9222 11.336 13.336C11.9222 12.7498 12.2515 11.9548 12.2515 11.1258C12.2515 10.2968 11.9222 9.50171 11.336 8.91551C10.7498 8.32932 9.95477 8 9.12576 8C8.29676 8 7.50171 8.32932 6.91551 8.91551C6.32932 9.50171 6 10.2968 6 11.1258Z" fill="#F55D48"/>
<path d="M15.3774 11.1258C15.3774 11.5362 15.4583 11.9427 15.6154 12.3219C15.7725 12.7012 16.0027 13.0458 16.293 13.336C16.5832 13.6263 16.9278 13.8565 17.307 14.0136C17.6863 14.1707 18.0927 14.2515 18.5032 14.2515C18.9137 14.2515 19.3201 14.1707 19.6994 14.0136C20.0786 13.8565 20.4232 13.6263 20.7135 13.336C21.0037 13.0458 21.2339 12.7012 21.391 12.3219C21.5481 11.9427 21.629 11.5362 21.629 11.1258C21.629 10.7153 21.5481 10.3088 21.391 9.92959C21.2339 9.55035 21.0037 9.20577 20.7135 8.91552C20.4232 8.62526 20.0786 8.39502 19.6994 8.23794C19.3201 8.08085 18.9137 8 18.5032 8C18.0927 8 17.6863 8.08085 17.307 8.23794C16.9278 8.39502 16.5832 8.62526 16.293 8.91552C16.0027 9.20577 15.7725 9.55035 15.6154 9.92959C15.4583 10.3088 15.3774 10.7153 15.3774 11.1258Z" fill="#EBAF56"/>
<path d="M24.7544 11.1258C24.7544 11.5362 24.8352 11.9427 24.9923 12.3219C25.1494 12.7012 25.3797 13.0458 25.6699 13.336C25.9602 13.6263 26.3047 13.8565 26.684 14.0136C27.0632 14.1707 27.4697 14.2515 27.8802 14.2515C28.2906 14.2515 28.6971 14.1707 29.0763 14.0136C29.4556 13.8565 29.8002 13.6263 30.0904 13.336C30.3807 13.0458 30.6109 12.7012 30.768 12.3219C30.9251 11.9427 31.0059 11.5362 31.0059 11.1258C31.0059 10.7153 30.9251 10.3088 30.768 9.92959C30.6109 9.55035 30.3807 9.20577 30.0904 8.91552C29.8002 8.62526 29.4556 8.39502 29.0763 8.23794C28.6971 8.08085 28.2906 8 27.8802 8C27.4697 8 27.0632 8.08085 26.684 8.23794C26.3047 8.39502 25.9602 8.62526 25.6699 8.91552C25.3797 9.20577 25.1494 9.55035 24.9923 9.92959C24.8352 10.3088 24.7544 10.7153 24.7544 11.1258Z" fill="#4FD9A7"/>
</g>
<defs>
<clipPath id="clip0_4262_22139">
<rect width="50" height="50" fill="white"/>
</clipPath>
</defs>
</svg>
