<svg width="28" height="28" viewBox="0 0 28 28" fill="none" xmlns="http://www.w3.org/2000/svg">
  <path d="M24.5003 2.3335H3.50026C2.10026 2.3335 0.933594 3.50016 0.933594 4.90016V19.5535C0.933594 20.9535 2.10026 22.1202 3.50026 22.1202H24.5003C25.9003 22.1202 27.0669 20.9535 27.0669 19.5535V4.90016C27.0669 3.50016 25.9003 2.3335 24.5003 2.3335ZM9.14693 15.5868C9.52026 15.9602 9.52026 16.5202 9.14693 16.8935C8.96026 17.0802 8.72693 17.1735 8.49359 17.1735C8.26026 17.1735 8.02693 17.0802 7.84026 16.8935L4.38693 13.4402C4.01359 13.0668 4.01359 12.5068 4.38693 12.1335L7.84026 8.68016C8.21359 8.30683 8.77359 8.30683 9.14693 8.68016C9.52026 9.0535 9.52026 9.6135 9.14693 9.98683L6.34693 12.7868L9.14693 15.5868ZM16.0069 9.0535L13.8136 16.5202C13.6736 16.9402 13.3003 17.1735 12.9269 17.1735C12.8336 17.1735 12.7403 17.1735 12.6469 17.1268C12.1336 16.9868 11.8536 16.4735 11.9936 15.9602L14.1869 8.4935C14.3269 7.98016 14.8403 7.70016 15.3536 7.84016C15.8669 8.02683 16.1469 8.58683 16.0069 9.0535ZM23.6136 13.4402L20.1603 16.8935C19.9736 17.0802 19.7403 17.1735 19.5069 17.1735C19.2736 17.1735 19.0403 17.0802 18.8536 16.8935C18.4803 16.5202 18.4803 15.9602 18.8536 15.5868L21.6536 12.7868L18.8536 9.98683C18.4803 9.6135 18.4803 9.0535 18.8536 8.68016C19.2269 8.30683 19.7869 8.30683 20.1603 8.68016L23.6136 12.1335C23.9869 12.4602 23.9869 13.0668 23.6136 13.4402ZM21.3736 25.9002H6.62693C6.11359 25.9002 5.69359 25.4802 5.69359 24.9668C5.69359 24.4535 6.11359 24.0335 6.62693 24.0335H21.3736C21.8869 24.0335 22.3069 24.4535 22.3069 24.9668C22.3069 25.4802 21.8869 25.9002 21.3736 25.9002Z" fill="#333333" />
</svg>
