<svg width="54" height="54" viewBox="0 0 54 54" fill="none" xmlns="http://www.w3.org/2000/svg">
<path d="M48.1992 3.375H5.74805C4.43496 3.375 3.375 4.43496 3.375 5.74805V15.5566C3.375 16.8697 4.43496 17.9297 5.74805 17.9297H48.1992C49.5123 17.9297 50.5723 16.8697 50.5723 15.5566V5.74805C50.5723 4.43496 49.5123 3.375 48.1992 3.375ZM46.7754 14.1328H7.17188V7.17188H46.7754V14.1328Z" fill="black"/>
<path d="M11.4275 8.75391H17.2283V12.5508H11.4275V8.75391ZM48.1992 36.0492H5.74805C4.43496 36.0492 3.375 37.1092 3.375 38.4223V48.2309C3.375 49.5439 4.43496 50.6039 5.74805 50.6039H48.1992C49.5123 50.6039 50.5723 49.5439 50.5723 48.2309V38.4223C50.5723 37.1092 49.5123 36.0492 48.1992 36.0492ZM46.7754 46.807H7.17188V39.8461H46.7754V46.807Z" fill="black"/>
<path d="M11.4275 41.4279H17.2283V45.2248H11.4275V41.4279ZM48.1992 19.7646H5.74805C4.43496 19.7646 3.375 20.8246 3.375 22.1377V31.9463C3.375 33.2594 4.43496 34.3193 5.74805 34.3193H48.1992C49.5123 34.3193 50.5723 33.2594 50.5723 31.9463V22.1377C50.5723 20.8246 49.5123 19.7646 48.1992 19.7646V19.7646ZM46.7754 30.5225H7.17188V23.5615H46.7754V30.5225Z" fill="black"/>
<path d="M11.4275 25.1436H17.2283V28.9404H11.4275V25.1436Z" fill="#4FD9A7"/>
</svg>
