<svg width="226" height="121" viewBox="0 0 226 121" fill="none" xmlns="http://www.w3.org/2000/svg">
  <ellipse cx="165" cy="60.5" rx="61" ry="60.5" fill="#CDE8E1" />
  <path d="M180.001 43.3335H150.001C148.001 43.3335 146.334 45.0002 146.334 47.0002V67.9335C146.334 69.9335 148.001 71.6002 150.001 71.6002H180.001C182.001 71.6002 183.667 69.9335 183.667 67.9335V47.0002C183.667 45.0002 182.001 43.3335 180.001 43.3335ZM158.067 62.2668C158.601 62.8002 158.601 63.6002 158.067 64.1335C157.801 64.4002 157.467 64.5335 157.134 64.5335C156.801 64.5335 156.467 64.4002 156.201 64.1335L151.267 59.2002C150.734 58.6668 150.734 57.8668 151.267 57.3335L156.201 52.4002C156.734 51.8668 157.534 51.8668 158.067 52.4002C158.601 52.9335 158.601 53.7335 158.067 54.2668L154.067 58.2668L158.067 62.2668ZM167.867 52.9335L164.734 63.6002C164.534 64.2002 164.001 64.5335 163.467 64.5335C163.334 64.5335 163.201 64.5335 163.067 64.4668C162.334 64.2668 161.934 63.5335 162.134 62.8002L165.267 52.1335C165.467 51.4002 166.201 51.0002 166.934 51.2002C167.667 51.4668 168.067 52.2668 167.867 52.9335ZM178.734 59.2002L173.801 64.1335C173.534 64.4002 173.201 64.5335 172.867 64.5335C172.534 64.5335 172.201 64.4002 171.934 64.1335C171.401 63.6002 171.401 62.8002 171.934 62.2668L175.934 58.2668L171.934 54.2668C171.401 53.7335 171.401 52.9335 171.934 52.4002C172.467 51.8668 173.267 51.8668 173.801 52.4002L178.734 57.3335C179.267 57.8002 179.267 58.6668 178.734 59.2002ZM175.534 77.0002H154.467C153.734 77.0002 153.134 76.4002 153.134 75.6668C153.134 74.9335 153.734 74.3335 154.467 74.3335H175.534C176.267 74.3335 176.867 74.9335 176.867 75.6668C176.867 76.4002 176.267 77.0002 175.534 77.0002Z" fill="#333333" />
  <ellipse cx="61" cy="60.5" rx="61" ry="60.5" fill="#FDF6E1" />
  <path d="M56.8856 43.814C58.6634 43.8134 60.3903 44.4079 61.791 45.5027C63.1918 46.5975 64.1858 48.1296 64.6147 49.8549C65.0436 51.5802 64.8827 53.3995 64.1576 55.0227C63.4326 56.646 62.185 57.9798 60.6139 58.8118C63.8647 59.6438 66.7462 61.5342 68.8038 64.1849C70.8614 66.8356 71.9782 70.0959 71.978 73.4515C71.978 74.1195 71.4347 74.6627 70.7687 74.6627H42.9662C42.2982 74.6627 41.7569 74.1195 41.7569 73.4515C41.7573 70.0915 42.8771 66.8275 44.9394 64.1749C47.0017 61.5223 49.889 59.6324 53.1452 58.8038C51.5773 57.9692 50.3336 56.6344 49.6117 55.0117C48.8898 53.3889 48.7312 51.5713 49.1612 49.8481C49.5912 48.1248 50.5851 46.5948 51.9848 45.5014C53.3844 44.4081 55.1095 43.8141 56.8856 43.814ZM67.6199 45.6288C69.1964 45.628 70.7278 46.1549 71.97 47.1257C73.2122 48.0965 74.0936 49.4552 74.4737 50.9852C74.8539 52.5152 74.7108 54.1285 74.0674 55.5677C73.424 57.007 72.3173 58.1894 70.9236 58.9265C73.8056 59.6641 76.3602 61.3398 78.1846 63.6895C80.009 66.0393 80.9995 68.9294 81 71.9042C81 72.4978 80.5171 72.9787 79.9256 72.9787H74.3884L74.3783 72.6104C74.2341 69.6149 73.3244 66.7063 71.7362 64.1624C70.1479 61.6185 67.934 59.5242 65.306 58.0794L65.1853 58.015L65.1873 58.011C66.5395 56.2129 67.2698 54.0235 67.2677 51.7736C67.2677 49.6207 66.6118 47.6167 65.4871 45.9588C66.1768 45.74 66.8962 45.6287 67.6199 45.6288Z" fill="#333333" />
  <path opacity="0.5" d="M113 91.5098C118.711 82.3246 122 71.5424 122 60.0098C122 48.4771 118.711 37.6949 113 28.5098C107.289 37.6949 104 48.4771 104 60.0098C104 71.5424 107.289 82.3246 113 91.5098Z" fill="#CDE8E1" />
</svg>
