<svg width="61" height="60" viewBox="0 0 61 60" fill="none" xmlns="http://www.w3.org/2000/svg">
<mask id="mask0_4262_22111" style="mask-type:alpha" maskUnits="userSpaceOnUse" x="0" y="0" width="61" height="60">
<rect x="0.838379" width="60" height="60" fill="#D9D9D9"/>
</mask>
<g mask="url(#mask0_4262_22111)">
<path d="M7.96362 52.8745V47.3745L13.5886 41.7495V52.8745H7.96362ZM18.0261 52.8745V37.3745L23.6511 31.7495V52.8745H18.0261ZM28.0261 52.8745V31.7495L33.6511 37.3745V52.8745H28.0261ZM38.0261 52.8745V37.3745L43.6511 31.7495V52.8745H38.0261ZM48.0886 52.8745V27.312L53.7136 21.687V52.8745H48.0886Z" fill="#020203"/>
<path d="M7.9624 32.25V40.25L25.8374 22.4375L35.8374 32.4375L53.7124 14.5625V6.5625L35.8374 24.375L25.8374 14.375L7.9624 32.25Z" fill="#F89B67"/>
</g>
</svg>
