<svg width="98" height="18" viewBox="0 0 98 18" fill="none" xmlns="http://www.w3.org/2000/svg">
  <path fill-rule="evenodd" clip-rule="evenodd" d="M18 0H0V18H18V0ZM10.3474 7.1459L9.00028 3L7.6532 7.1459H3.29395L6.82066 9.7082L5.47357 13.8541L9.00028 11.2918L12.527 13.8541L11.3504 10.1395L9.59102 10.8889L11.1799 9.7082L14.7066 7.1459H10.3474Z" fill="#21A56E" />
  <path fill-rule="evenodd" clip-rule="evenodd" d="M38 0H20V18H38V0ZM30.3474 7.1459L29.0003 3L27.6532 7.1459H23.2939L26.8207 9.7082L25.4736 13.8541L29.0003 11.2918L32.527 13.8541L31.3504 10.1395L29.591 10.8889L31.1799 9.7082L34.7066 7.1459H30.3474Z" fill="#21A56E" />
  <path fill-rule="evenodd" clip-rule="evenodd" d="M58 0H40V18H58V0ZM50.3474 7.1459L49.0003 3L47.6532 7.1459H43.2939L46.8207 9.7082L45.4736 13.8541L49.0003 11.2918L52.527 13.8541L51.3504 10.1395L49.591 10.8889L51.1799 9.7082L54.7066 7.1459H50.3474Z" fill="#21A56E" />
  <path fill-rule="evenodd" clip-rule="evenodd" d="M78 0H60V18H78V0ZM70.3474 7.1459L69.0003 3L67.6532 7.1459H63.2939L66.8207 9.7082L65.4736 13.8541L69.0003 11.2918L72.527 13.8541L71.3504 10.1395L69.591 10.8889L71.1799 9.7082L74.7066 7.1459H70.3474Z" fill="#21A56E" />
  <path fill-rule="evenodd" clip-rule="evenodd" d="M98 0H80V18H98V0ZM90.3474 7.1459L89.0003 3L87.6532 7.1459H83.2939L86.8207 9.7082L85.4736 13.8541L89.0003 11.2918L92.527 13.8541L91.3504 10.1395L89.591 10.8889L91.1799 9.7082L94.7066 7.1459H90.3474Z" fill="#21A56E" />
</svg>
